# xmcd
# 
# Track frame offsets:
#     150
#     20587
#     36651
#     47406
#     73180
#     89880
#     108825
#     122273
#     138456
#     154900
#     169632
#     183676
#     197933
#     212064
# 
# Disc length: 3109
# 
# Revision: 2
# Processed by: cddbd v1.5.2PL0 Copyright (c) Steve Scherf et al.
# Submitted via: fre:ac v1.0.27
# 
DISCID=d00c230e
DTITLE=Patrick Norman - Simplement Patrick Norman
DYEAR=2004
DGENRE=
TTITLE0=Notre amour
TTITLE1=Pour un instant
TTITLE2=Mon coeur est a toi
TTITLE3=Quand le ble sera leve
TTITLE4=Papillon
TTITLE5=Mon pays
TTITLE6=Toi qui reve
TTITLE7=C'est la saison
TTITLE8=Let's try once again
TTITLE9=Aiko Aiko
TTITLE10=C'est pour toi que je chante
TTITLE11=On part au soleil
TTITLE12=Qui est gagnant
TTITLE13=Quand on est en amour
EXTD=
EXTT0=
EXTT1=
EXTT2=
EXTT3=
EXTT4=
EXTT5=
EXTT6=
EXTT7=
EXTT8=
EXTT9=
EXTT10=
EXTT11=
EXTT12=
EXTT13=
PLAYORDER=
